# xmcd CD database file
#
# Track frame offsets:
#	150
#	19385
#	29607
#	58847
#	70177
#	93677
#	100842
#	110715
#	123917
#	132150
#	139760
#	159522
#	171035
#	173510
#	183737
#	186857
#	199390
#	207730
#	220607
#	237172
#	243750
#	254877
#	273877
#	288122
#
# Disc length: 4126 seconds
#
# Revision: 13
# Processed by: cddbd v1.5.2PL0 Copyright (c) Steve Scherf et al.
# Submitted via: CDex 1.70beta2
#
DISCID=70101c18
DTITLE=菅野よう子 - 劇場版 ∀ガンダム サウンドトラックス 惑星の午後、僕らはキスをした
DYEAR=2002
DGENRE=Soundtrack
TTITLE0=AFTER ALL
TTITLE1=ホワイトドールの祭りの会一同 - 宵越しの祭り
TTITLE2=ウィルゲム離陸
TTITLE3=Silent prayer
TTITLE4=Gabriela Robin - MOON
TTITLE5=Jig
TTITLE6=クリケット
TTITLE7=Carla Vallet - THE ETERNITY DANCE
TTITLE8=はたらくお嬢さん
TTITLE9=花泥棒
TTITLE10=月のくじら
TTITLE11=Gabriela Robin - The way to the river
TTITLE12=グエン様のファーストカー
TTITLE13=Queens valley
TTITLE14=着せ替えドール
TTITLE15=Element's
TTITLE16=レッド隊 - 月の魂
TTITLE17=X top
TTITLE18=Kaoru Nishino - Black history
TTITLE19=酔っ払いワルツ
TTITLE20=コレンの最期
TTITLE21=Final shore
TTITLE22=Moon 2
TTITLE23=End title ノスタルジーナ
EXTD=YEAR: 2002
EXTT0=
EXTT1=
EXTT2=
EXTT3=
EXTT4=
EXTT5=
EXTT6=
EXTT7=
EXTT8=
EXTT9=
EXTT10=
EXTT11=
EXTT12=
EXTT13=
EXTT14=
EXTT15=
EXTT16=
EXTT17=
EXTT18=
EXTT19=
EXTT20=
EXTT21=
EXTT22=
EXTT23=
PLAYORDER=
